<?xml version="1.0" standalone="no"?>
<!DOCTYPE svg PUBLIC "-//W3C//DTD SVG 20010904//EN"
 "http://www.w3.org/TR/2001/REC-SVG-20010904/DTD/svg10.dtd">
<svg version="1.0" xmlns="http://www.w3.org/2000/svg"
 width="16.000000pt" height="16.000000pt" viewBox="0 0 16.000000 16.000000"
 preserveAspectRatio="xMidYMid meet">
<metadata>
Created by potrace 1.11, written by Peter Selinger 2001-2013
</metadata>
<g transform="translate(0.000000,16.000000) scale(0.003612,-0.003612)"
fill="#000000" stroke="none">
<path d="M2473 4362 c-13 -2 -23 -8 -23 -13 0 -5 -11 -9 -25 -9 -14 0 -25 -6
-25 -12 0 -10 -3 -9 -9 1 -6 10 -10 10 -16 1 -4 -6 -13 -9 -20 -6 -8 3 -15 2
-17 -2 -2 -4 -28 -17 -58 -29 -30 -12 -68 -28 -85 -34 -16 -7 -33 -12 -37 -11
-5 1 -8 -2 -8 -7 0 -6 -9 -8 -20 -6 -11 2 -18 0 -15 -6 4 -5 -3 -9 -14 -9 -11
0 -23 -5 -26 -10 -4 -6 -11 -8 -16 -5 -5 4 -9 1 -9 -5 0 -6 -6 -10 -12 -9 -25
3 -38 -1 -38 -12 0 -8 6 -7 18 2 14 11 15 11 5 -1 -16 -17 -46 -23 -36 -7 5 8
2 8 -9 0 -8 -7 -18 -10 -21 -6 -4 3 -7 -2 -7 -12 0 -15 -2 -16 -17 -4 -15 12
-16 12 -10 -3 3 -10 1 -20 -5 -24 -7 -4 -8 -3 -4 4 10 16 -16 15 -33 0 -11
-11 -12 -10 -6 1 6 10 4 12 -4 7 -7 -5 -10 -15 -6 -23 5 -14 3 -14 -11 -2 -14
11 -18 11 -21 1 -3 -6 -9 -10 -14 -6 -5 3 -9 0 -9 -6 0 -6 -5 -8 -10 -5 -6 4
-17 1 -25 -5 -8 -7 -15 -9 -15 -4 0 5 -7 0 -15 -10 -8 -11 -15 -14 -15 -8 0 7
-5 12 -11 12 -5 0 -8 -4 -5 -9 5 -7 -10 -13 -73 -27 -8 -1 -17 -8 -21 -14 -6
-9 -9 -9 -13 1 -4 10 -6 10 -6 2 -1 -7 -10 -13 -21 -13 -12 0 -20 -7 -20 -17
0 -15 -2 -14 -15 3 -12 16 -14 17 -15 3 0 -9 -7 -20 -16 -23 -8 -3 -12 -2 -9
4 3 6 1 10 -4 10 -6 0 -11 -4 -11 -10 0 -5 -9 -10 -20 -10 -11 0 -20 -6 -20
-12 0 -9 -3 -9 -8 -2 -5 7 -14 7 -29 -1 -13 -7 -20 -15 -16 -19 4 -4 -4 -3
-17 2 -17 6 -33 4 -50 -5 -14 -7 -19 -13 -11 -13 8 0 11 -3 8 -6 -4 -4 -13 -1
-22 6 -10 8 -15 9 -15 1 0 -6 -13 -11 -28 -11 -44 0 -69 -28 -69 -77 0 -23 4
-41 9 -40 6 1 12 -6 13 -15 2 -11 -3 -18 -13 -19 -11 0 -12 -2 -4 -6 18 -7
-28 -42 -50 -38 -10 2 -18 0 -18 -4 0 -4 -11 -13 -24 -20 -13 -7 -23 -21 -21
-30 1 -9 -3 -19 -9 -23 -8 -5 -7 -8 2 -8 6 0 12 -5 12 -11 0 -5 -6 -7 -12 -3
-10 6 -10 4 0 -8 10 -13 10 -18 1 -24 -8 -5 -9 -3 -4 6 6 9 4 11 -4 6 -7 -5
-10 -15 -6 -23 4 -13 3 -14 -10 -3 -11 9 -15 9 -15 1 0 -7 -4 -10 -9 -6 -5 3
-16 -1 -24 -9 -11 -11 -17 -12 -27 -3 -10 9 -11 9 -6 0 4 -7 -2 -17 -14 -23
-11 -6 -18 -15 -15 -21 4 -5 -1 -12 -10 -15 -9 -4 -12 -11 -7 -18 4 -6 8 -18
7 -26 -1 -20 17 -39 30 -32 6 3 2 -4 -8 -15 -9 -11 -14 -24 -10 -28 5 -5 0 -3
-10 4 -15 12 -17 12 -11 -3 3 -9 2 -16 -3 -16 -5 0 -10 -20 -10 -45 0 -25 3
-42 8 -39 5 3 9 -3 9 -13 0 -15 2 -16 10 -3 7 11 10 11 10 2 0 -7 5 -10 10 -7
6 3 10 0 10 -7 0 -9 3 -9 10 2 7 11 10 11 10 2 0 -7 4 -11 9 -7 5 3 13 0 17
-6 5 -8 3 -9 -6 -4 -10 6 -12 4 -7 -9 4 -9 3 -15 -2 -12 -5 3 -11 -5 -13 -19
-4 -18 -1 -25 11 -26 12 0 11 -2 -4 -9 -16 -7 -17 -9 -3 -9 9 -1 19 -10 23
-20 4 -12 12 -18 21 -14 16 6 20 -12 4 -22 -5 -3 -10 -11 -10 -16 0 -6 4 -7
10 -4 7 4 7 -3 0 -20 -7 -17 -7 -24 0 -20 6 3 10 -3 10 -15 0 -12 5 -18 10
-15 9 6 14 -8 11 -27 0 -5 3 -8 9 -8 5 0 10 -5 10 -11 0 -5 -4 -7 -10 -4 -6 3
-9 -4 -8 -19 1 -13 6 -22 10 -20 7 5 10 -4 7 -23 0 -3 6 -10 14 -15 12 -6 14
-15 7 -37 -5 -20 -4 -38 6 -55 8 -16 9 -24 2 -20 -7 5 -8 2 -2 -7 12 -19 16
-58 9 -77 -5 -13 -8 -12 -21 4 -9 10 -12 12 -8 4 6 -11 1 -11 -20 4 -16 10
-25 13 -22 7 7 -11 -1 -14 -37 -14 -10 0 -15 -2 -12 -5 2 -3 -4 -11 -15 -19
-11 -8 -20 -23 -20 -34 0 -11 -6 -22 -14 -25 -8 -3 -13 -16 -11 -29 1 -13 -1
-29 -6 -36 -4 -8 -3 -20 4 -28 10 -12 9 -13 -2 -6 -11 6 -13 4 -8 -7 3 -9 1
-20 -5 -26 -6 -6 -6 -12 3 -17 8 -6 10 -4 4 5 -5 9 -4 11 4 6 7 -5 9 -12 3
-19 -13 -18 -15 -89 -2 -121 10 -27 9 -28 -7 -15 -15 12 -16 12 -8 -1 5 -8 10
-38 10 -67 1 -28 7 -59 15 -67 11 -14 10 -16 -5 -10 -15 6 -16 4 -6 -14 7 -12
9 -22 5 -22 -4 0 1 -10 12 -22 19 -22 19 -22 0 -8 -18 14 -19 13 -14 -7 4 -13
2 -26 -3 -29 -5 -3 -5 -13 1 -25 6 -11 15 -17 20 -14 4 3 3 -6 -3 -19 -7 -13
-16 -22 -20 -19 -5 3 -1 -6 8 -21 10 -14 13 -26 9 -26 -5 0 -2 -5 6 -10 12 -8
12 -10 1 -10 -11 0 -11 -3 0 -17 12 -15 12 -16 -1 -8 -12 7 -13 6 -3 -7 7 -8
10 -18 6 -21 -3 -4 0 -14 8 -24 12 -15 12 -16 -5 -9 -19 6 -19 6 -3 -12 9 -10
14 -22 10 -25 -3 -4 0 -7 7 -7 9 0 7 -5 -6 -15 -12 -9 -13 -13 -4 -10 11 4 16
-1 16 -15 0 -11 -4 -20 -9 -20 -5 0 -5 -6 1 -13 6 -7 12 -30 14 -50 1 -20 7
-37 13 -37 5 0 3 -5 -5 -10 -12 -8 -12 -10 -1 -10 8 0 11 -7 8 -20 -3 -11 0
-26 7 -33 6 -6 11 -27 10 -44 -1 -22 2 -31 10 -26 6 4 5 0 -2 -9 -7 -9 -12
-22 -11 -30 1 -7 -1 -21 -6 -31 -4 -9 -5 -26 -2 -37 4 -14 0 -20 -11 -20 -15
0 -15 -2 -2 -10 12 -8 12 -10 1 -10 -10 0 -11 -3 -2 -14 8 -10 9 -16 1 -21 -5
-3 -10 -22 -10 -41 0 -19 -5 -34 -11 -34 -6 0 -9 -6 -6 -14 3 -7 0 -19 -6 -25
-9 -9 -8 -11 6 -6 9 4 17 3 17 -3 0 -6 -5 -12 -12 -14 -16 -6 -12 -156 4 -176
8 -10 9 -13 2 -9 -8 4 -11 -2 -10 -17 0 -13 4 -22 7 -20 4 2 10 -3 13 -12 3
-8 2 -12 -4 -9 -6 3 -10 2 -10 -4 0 -5 6 -11 13 -14 9 -3 9 -8 -2 -21 -12 -14
-12 -16 0 -11 10 4 15 -2 16 -16 1 -12 8 -26 15 -30 7 -5 9 -9 3 -9 -5 0 -1
-7 9 -15 14 -11 16 -15 5 -15 -10 -1 -9 -3 4 -11 9 -6 15 -14 12 -19 -3 -4 2
-11 11 -14 8 -3 12 -10 9 -16 -3 -5 -2 -10 3 -10 5 0 15 -13 22 -30 7 -16 17
-30 22 -30 5 0 6 -4 3 -10 -3 -5 -1 -10 5 -10 6 0 9 -4 5 -9 -3 -6 3 -14 12
-20 14 -8 15 -11 3 -11 -10 -1 -9 -4 5 -10 19 -8 19 -9 1 -9 -16 -1 -17 -3 -5
-18 10 -11 10 -14 2 -9 -12 7 -18 -5 -14 -28 1 -5 -6 -6 -16 -2 -17 6 -17 5 0
-8 18 -14 18 -15 0 -25 -13 -7 -14 -10 -4 -11 11 0 10 -4 -5 -16 -10 -8 -13
-12 -5 -9 9 5 8 0 -4 -18 -20 -31 -21 -37 -4 -48 10 -6 10 -11 0 -22 -9 -12
-9 -16 1 -20 11 -4 11 -6 0 -6 -8 -1 -6 -8 8 -23 21 -23 28 -54 8 -42 -7 4 -8
3 -4 -5 4 -6 12 -9 17 -6 5 4 12 -1 15 -10 4 -9 13 -14 21 -10 11 4 13 1 9
-10 -3 -9 -2 -14 3 -10 5 3 12 -1 14 -7 4 -10 6 -10 6 0 1 7 5 11 11 7 5 -3 6
-13 3 -23 -5 -14 -3 -15 8 -5 19 18 32 16 25 -3 -5 -14 -4 -15 9 -4 11 9 15 9
15 1 0 -9 5 -9 20 -1 17 9 20 8 21 -12 0 -13 3 -18 5 -11 4 8 14 9 36 2 17 -4
34 -6 38 -4 4 2 16 -3 26 -11 10 -9 13 -12 5 -8 -10 5 -12 3 -7 -5 5 -8 12 -9
19 -2 18 14 29 14 37 1 4 -7 19 -13 34 -13 17 0 26 -5 26 -16 0 -14 2 -14 10
-1 9 14 15 7 10 -15 -1 -5 4 -5 10 2 9 8 20 8 46 -3 19 -8 34 -12 34 -9 0 3 6
0 14 -7 8 -7 11 -17 8 -22 -3 -5 0 -6 7 -2 6 4 9 12 6 17 -4 5 -1 9 4 9 6 0
11 -7 11 -16 0 -14 2 -15 17 -3 9 8 14 9 11 4 -4 -6 9 -15 28 -21 24 -8 34 -8
35 0 0 6 4 2 9 -9 5 -11 9 -14 9 -7 1 6 6 12 12 12 5 0 8 -4 5 -9 -4 -5 3 -7
14 -4 11 3 17 10 13 16 -4 6 4 7 23 3 27 -7 27 -6 10 7 -15 11 -16 16 -6 22 9
6 11 4 6 -6 -4 -8 -1 -6 7 3 8 10 17 15 20 11 4 -3 4 4 2 16 -2 12 0 19 6 16
5 -4 12 0 15 9 3 9 12 12 22 8 15 -5 15 -3 4 11 -12 14 -11 16 8 12 17 -3 19
-1 11 9 -9 10 -6 13 14 11 14 -2 25 1 25 7 0 6 -7 8 -15 5 -8 -4 -17 -1 -21 5
-4 6 -3 8 2 5 6 -3 16 -1 24 4 13 8 13 10 0 20 -13 10 -13 10 0 6 18 -5 42 17
32 29 -4 5 11 -4 33 -20 31 -21 34 -22 15 -4 -37 34 -37 36 -12 53 12 9 19 21
16 27 -4 7 -2 8 4 4 7 -4 12 -2 12 4 0 6 5 8 12 4 8 -5 9 -2 5 10 -4 10 -3 15
3 11 6 -3 10 -1 10 4 0 6 5 11 11 11 5 0 8 -4 4 -9 -3 -5 -1 -12 5 -16 6 -4 8
-10 5 -15 -3 -5 -1 -11 4 -14 10 -7 9 13 -2 31 -4 7 1 14 13 18 11 3 20 14 20
23 0 15 2 15 10 2 8 -12 10 -10 10 8 0 13 4 20 10 17 6 -4 7 -12 4 -18 -4 -7
-4 -9 1 -5 4 4 15 2 24 -5 14 -10 14 -10 3 5 -16 19 -2 31 15 13 6 -7 10 -15
8 -17 -2 -2 4 -4 14 -4 10 0 18 5 18 12 0 6 -7 11 -15 10 -8 0 -17 5 -19 12
-3 8 1 10 13 5 13 -5 15 -3 9 8 -6 11 -5 12 6 2 17 -17 30 -17 26 0 -1 6 5 13
13 13 8 1 17 3 20 4 23 9 42 6 50 -8 8 -13 9 -10 5 13 -3 17 -2 24 1 18 3 -7
12 -13 20 -13 9 0 13 4 10 9 -4 5 2 8 11 6 10 -2 20 -4 22 -4 3 -1 -3 -7 -14
-14 -14 -11 -15 -16 -5 -22 8 -5 11 -4 7 2 -4 6 0 13 8 17 8 3 12 12 9 21 -3
8 -3 15 0 15 4 0 11 -10 16 -23 8 -20 9 -20 9 -2 1 11 10 26 22 33 18 12 19
11 10 -7 -16 -30 -13 -38 5 -13 21 31 53 29 50 -3 -2 -13 1 -22 6 -19 5 3 7
12 4 20 -3 8 1 17 9 20 8 4 12 10 9 15 -3 5 3 6 12 2 12 -4 15 -3 10 5 -5 8
-2 10 8 6 9 -3 16 -14 17 -23 0 -12 2 -11 8 4 5 11 7 23 5 26 -6 11 31 6 38
-5 5 -7 8 -4 8 7 0 9 6 17 14 17 8 0 17 7 20 16 4 9 9 14 13 10 5 -5 43 46 48
64 7 24 19 39 29 33 7 -4 7 -2 -1 7 -9 10 -8 16 3 28 8 8 13 21 10 28 -3 8 1
14 9 14 8 0 15 -5 15 -12 0 -6 3 -8 7 -4 5 4 -1 14 -11 22 -16 11 -17 17 -8
26 7 7 12 20 12 30 0 16 3 17 23 7 19 -11 20 -10 10 3 -7 8 -10 18 -6 22 4 4
-1 4 -12 1 -16 -6 -17 -5 -5 4 8 6 11 11 6 11 -5 0 -2 7 5 16 7 9 14 23 15 32
2 8 9 19 16 23 11 7 10 9 -1 9 -10 0 -11 3 -2 13 6 8 8 17 4 21 -4 4 0 4 9 1
13 -5 16 -2 13 14 -3 14 1 18 11 14 10 -4 12 0 8 10 -3 9 -13 14 -22 11 -14
-5 -14 -4 1 6 9 6 14 16 11 22 -8 13 11 3 41 -21 18 -15 19 -15 7 0 -10 14
-10 18 3 23 9 3 13 2 10 -4 -3 -6 -2 -10 4 -10 5 0 13 5 16 10 4 6 11 8 16 4
17 -10 58 -14 63 -5 3 4 -6 7 -19 5 -14 -1 -27 1 -30 6 -3 5 3 7 12 6 26 -4
83 25 76 38 -4 6 1 5 10 -3 15 -12 17 -12 11 4 -5 13 -4 16 4 11 7 -4 12 -1
12 8 0 9 6 13 14 10 8 -3 17 0 21 5 3 6 11 9 16 6 5 -4 9 -1 9 4 0 15 -13 14
-29 -2 -10 -10 -11 -9 -6 6 4 9 11 17 17 17 5 0 6 6 2 13 -4 6 3 3 16 -8 14
-12 20 -14 15 -5 -22 36 -14 57 19 51 5 -1 6 5 3 13 -3 8 1 20 9 26 8 7 14 9
14 4 0 -4 5 -3 12 4 9 9 9 15 -1 24 -10 11 -11 9 -6 -7 6 -16 5 -17 -4 -5 -14
20 3 37 22 22 11 -9 14 -8 14 3 0 8 -4 12 -9 9 -4 -3 -8 2 -8 11 0 10 6 15 13
12 10 -3 12 3 9 23 -3 21 3 33 25 50 15 13 21 21 12 17 -13 -4 -16 0 -15 17 0
15 6 22 14 18 9 -3 11 3 8 21 -4 23 -2 25 22 22 15 -2 21 -2 14 1 -6 3 -9 10
-6 16 4 6 -2 8 -17 3 l-23 -8 25 24 c15 14 24 32 21 44 -2 16 -1 17 7 5 9 -13
11 -13 11 3 0 9 -5 17 -11 17 -5 0 -8 4 -4 10 3 5 12 7 19 4 8 -3 17 0 21 6 3
6 1 9 -6 8 -6 -2 -14 3 -16 10 -3 6 0 12 6 12 6 0 11 5 11 11 0 5 -4 8 -8 5
-5 -3 -9 1 -9 9 0 8 3 13 6 11 3 -2 14 7 25 21 l18 25 -22 -12 -22 -12 18 25
c11 14 21 23 24 22 3 -2 12 1 20 6 12 8 11 9 -4 7 -10 -2 -21 3 -24 11 -3 8 0
11 6 7 15 -9 21 16 10 38 -8 14 -7 17 3 11 9 -6 11 -3 6 9 -4 10 -3 15 3 11 6
-3 10 1 10 10 0 10 -5 14 -12 10 -7 -4 -3 2 8 12 20 18 20 21 5 31 -14 10 -14
11 0 6 18 -6 22 26 5 39 -6 5 2 6 19 2 28 -6 28 -5 11 8 -13 10 -15 16 -8 21
7 4 12 16 12 27 0 11 5 17 10 14 17 -11 11 7 -7 21 -17 13 -17 14 2 7 17 -6
18 -4 8 8 -10 12 -9 20 5 40 18 26 25 52 12 44 -10 -6 -19 16 -13 33 3 6 10 9
16 5 7 -3 9 -2 4 2 -4 5 3 20 15 34 l23 26 -29 -25 c-20 -17 -27 -20 -23 -9 3
9 0 22 -6 28 -9 9 -8 11 6 6 9 -4 17 -3 17 3 0 6 -6 12 -12 15 -10 3 -10 8 1
18 12 12 13 12 6 -1 -5 -8 -5 -12 0 -8 4 4 14 3 21 -3 8 -7 14 -6 20 2 4 7 3
9 -3 6 -6 -4 -16 0 -23 9 -7 8 -20 12 -29 9 -11 -3 -10 0 3 10 11 8 14 15 8
15 -14 0 -12 36 2 59 7 11 5 13 -8 8 -9 -4 -15 -3 -11 2 3 5 2 11 -2 14 -5 2
-3 3 3 1 6 -1 11 4 11 12 0 7 -4 11 -8 9 -13 -8 -18 22 -6 35 9 10 9 11 0 6
-9 -5 -13 0 -13 14 0 12 -4 18 -10 15 -5 -3 -7 0 -4 8 3 8 -2 21 -10 30 -8 8
-12 18 -8 22 4 5 0 6 -9 2 -11 -4 -16 0 -15 11 0 9 -5 16 -12 14 -8 -1 -11 2
-7 8 3 5 -1 10 -9 10 -9 0 -16 6 -16 13 0 8 -4 7 -10 -3 -8 -12 -10 -12 -10
-1 0 10 -3 11 -14 2 -11 -9 -19 -9 -36 1 -17 11 -22 11 -30 -2 -6 -9 -10 -10
-10 -3 0 6 5 15 10 18 6 4 7 11 4 17 -4 6 1 6 14 -1 19 -10 20 -9 16 15 -3 19
-1 24 8 18 7 -4 4 3 -7 16 l-20 24 30 -18 30 -19 -25 28 c-18 21 -20 27 -8 22
10 -3 20 -1 24 5 4 6 3 8 -2 5 -6 -3 -16 -2 -24 4 -12 7 -12 9 -1 9 10 0 11 3
2 14 -10 11 -8 17 6 25 10 6 13 11 7 11 -6 0 -10 11 -9 24 3 27 24 68 25 49 0
-7 5 -13 10 -13 6 0 9 6 8 13 -2 6 4 12 13 11 9 -1 16 5 16 12 0 7 -4 11 -8 9
-4 -3 -9 2 -13 10 -3 8 0 17 6 21 7 5 8 2 3 -7 -5 -8 -4 -10 0 -6 12 10 16 67
5 67 -5 0 -7 -10 -5 -21 3 -12 1 -19 -3 -15 -12 13 -8 65 6 71 7 3 10 10 7 15
-8 12 17 9 26 -3 3 -5 9 -1 12 8 4 9 3 13 -3 10 -5 -3 -8 3 -7 14 0 11 5 17 9
15 4 -3 8 0 8 7 0 8 5 7 18 -2 15 -13 16 -12 4 3 -8 9 -20 14 -28 11 -16 -6
-10 20 10 46 8 10 8 13 0 8 -13 -7 -39 22 -39 43 1 8 -2 27 -6 41 -6 23 -4 26
17 23 13 -1 24 2 24 8 0 6 -7 8 -15 4 -12 -4 -13 -2 -3 14 7 10 17 16 23 14 5
-3 1 2 -9 10 -17 14 -16 20 5 18 3 -1 6 5 6 13 0 8 -4 12 -9 9 -4 -3 -6 10 -4
28 3 21 9 32 17 30 8 -2 10 0 6 5 -5 4 -14 8 -19 8 -6 0 -12 12 -12 27 -1 14
1 25 5 23 3 -2 6 12 7 33 1 27 -1 33 -8 22 -5 -8 -10 -10 -10 -4 0 5 5 15 12
22 9 9 9 12 -1 12 -8 0 -11 6 -7 15 3 8 0 14 -7 12 -6 -1 -13 8 -15 20 -2 12
-18 36 -35 53 -23 22 -26 29 -12 24 11 -4 -4 16 -33 44 -28 29 -57 52 -62 52
-5 0 -15 9 -22 20 -7 11 -20 20 -28 20 -13 0 -13 1 0 10 13 8 12 10 -2 10 -10
0 -18 5 -18 10 0 6 -6 10 -14 10 -7 0 -16 10 -19 21 -4 15 -11 20 -22 15 -9
-3 -13 -2 -10 3 3 6 -3 14 -12 20 -16 9 -16 12 -3 21 12 9 11 10 -7 5 -15 -4
-26 0 -36 15 -7 11 -17 17 -21 12 -4 -4 -6 0 -4 8 2 9 -6 16 -20 18 -23 4 -23
4 -5 25 16 19 16 20 1 8 -14 -10 -18 -11 -18 -1 0 10 -3 10 -15 0 -9 -7 -18
-10 -22 -6 -3 3 -2 6 4 6 5 0 10 7 10 15 0 11 -4 12 -14 4 -9 -8 -13 -8 -13
-1 0 6 -6 9 -14 6 -7 -3 -21 2 -30 11 -9 9 -22 15 -28 13 -7 -3 -19 2 -27 9
-11 12 -15 12 -22 1 -7 -10 -9 -9 -9 4 0 11 -5 15 -14 12 -8 -3 -17 0 -22 7
-4 7 -3 10 3 6 5 -3 10 0 10 8 0 13 -3 13 -18 -1 -13 -12 -19 -12 -25 -3 -5 8
-3 10 6 4 8 -5 11 -4 6 3 -3 6 -15 9 -26 7 -11 -2 -20 0 -20 5 0 5 -11 12 -25
16 -14 3 -25 10 -25 14 0 5 -16 14 -35 21 -19 7 -35 16 -35 20 0 4 -9 9 -20
12 -11 3 -20 13 -20 24 0 15 -2 16 -10 3 -8 -13 -14 -10 -36 15 -14 17 -22 24
-18 16 5 -9 3 -12 -4 -7 -7 4 -12 13 -12 20 0 8 -10 21 -22 30 -13 9 -16 14
-8 10 8 -4 12 -4 8 1 -8 9 -58 12 -95 7z m654 -377 c0 -8 -4 -12 -9 -9 -5 3
-6 10 -3 15 9 13 12 11 12 -6z m403 -810 c7 -9 8 -15 2 -15 -5 0 -12 7 -16 15
-3 8 -4 15 -2 15 2 0 9 -7 16 -15z m84 -1036 c-8 -14 -21 -11 -21 5 0 8 6 12
14 9 7 -3 10 -9 7 -14z m-1446 -1747 c13 11 14 11 10 -2 -6 -18 -30 -20 -34
-2 -1 7 0 8 3 2 3 -7 10 -7 21 2z"/>
<path d="M1160 3739 c0 -5 5 -7 10 -4 6 3 10 8 10 11 0 2 -4 4 -10 4 -5 0 -10
-5 -10 -11z"/>
<path d="M3555 3470 c3 -5 8 -10 11 -10 2 0 4 5 4 10 0 6 -5 10 -11 10 -5 0
-7 -4 -4 -10z"/>
<path d="M3559 3403 c-12 -16 -12 -17 2 -6 9 7 20 9 24 5 5 -4 5 -1 1 6 -9 16
-11 15 -27 -5z"/>
<path d="M3570 3369 c0 -5 5 -7 10 -4 6 3 10 8 10 11 0 2 -4 4 -10 4 -5 0 -10
-5 -10 -11z"/>
<path d="M3530 3226 c0 -8 4 -17 9 -20 5 -4 7 3 4 14 -6 23 -13 26 -13 6z"/>
<path d="M3506 3032 c-2 -4 4 -8 14 -8 10 0 16 4 14 8 -3 4 -9 8 -14 8 -5 0
-11 -4 -14 -8z"/>
<path d="M3530 3006 c0 -2 8 -10 18 -17 15 -13 16 -12 3 4 -13 16 -21 21 -21
13z"/>
<path d="M3536 2928 c3 -5 10 -6 15 -3 13 9 11 12 -6 12 -8 0 -12 -4 -9 -9z"/>
<path d="M3446 2865 c-3 -8 0 -17 6 -21 6 -4 8 -3 4 4 -3 5 -1 12 6 14 8 3 9
6 1 11 -6 4 -13 0 -17 -8z"/>
<path d="M3470 2840 c-6 -11 -8 -20 -6 -20 3 0 10 9 16 20 6 11 8 20 6 20 -3
0 -10 -9 -16 -20z"/>
<path d="M3445 2800 c-18 -8 -18 -9 -2 -9 12 -1 16 -6 11 -13 -4 -7 -3 -9 1
-5 7 6 17 39 12 36 -1 0 -11 -4 -22 -9z"/>
<path d="M3620 2356 c0 -2 7 -7 16 -10 8 -3 12 -2 9 4 -6 10 -25 14 -25 6z"/>
<path d="M3606 2103 c-4 -11 -1 -11 14 -3 24 13 25 17 5 17 -8 0 -16 -6 -19
-14z"/>
<path d="M3558 1893 c7 -3 16 -2 19 1 4 3 -2 6 -13 5 -11 0 -14 -3 -6 -6z"/>
<path d="M3559 1823 c-13 -16 -12 -17 4 -4 16 13 21 21 13 21 -2 0 -10 -8 -17
-17z"/>
<path d="M3507 1696 c-4 -10 -1 -13 8 -9 8 3 12 9 9 14 -7 12 -11 11 -17 -5z"/>
<path d="M3496 1597 c3 -10 9 -15 12 -12 3 3 0 11 -7 18 -10 9 -11 8 -5 -6z"/>
<path d="M3476 1572 c-3 -5 1 -9 9 -9 8 0 12 4 9 9 -3 4 -7 8 -9 8 -2 0 -6 -4
-9 -8z"/>
<path d="M3490 1531 c0 -6 4 -13 10 -16 6 -3 7 1 4 9 -7 18 -14 21 -14 7z"/>
<path d="M3415 1400 c-4 -6 -10 -8 -15 -5 -5 3 -11 1 -14 -4 -8 -13 22 -7 36
7 7 7 9 12 6 12 -4 0 -10 -5 -13 -10z"/>
<path d="M3390 1329 c0 -5 5 -7 10 -4 6 3 10 8 10 11 0 2 -4 4 -10 4 -5 0 -10
-5 -10 -11z"/>
<path d="M3356 1263 c-6 -14 -5 -15 5 -6 7 7 10 15 7 18 -3 3 -9 -2 -12 -12z"/>
<path d="M3285 1210 c-3 -5 -1 -10 4 -10 6 0 11 5 11 10 0 6 -2 10 -4 10 -3 0
-8 -4 -11 -10z"/>
<path d="M3330 1209 c0 -5 5 -7 10 -4 6 3 10 8 10 11 0 2 -4 4 -10 4 -5 0 -10
-5 -10 -11z"/>
<path d="M3295 1150 c-3 -5 -1 -10 4 -10 6 0 11 5 11 10 0 6 -2 10 -4 10 -3 0
-8 -4 -11 -10z"/>
<path d="M3255 1090 c3 -5 8 -10 11 -10 2 0 4 5 4 10 0 6 -5 10 -11 10 -5 0
-7 -4 -4 -10z"/>
<path d="M3154 1056 c1 -8 5 -18 8 -22 4 -3 5 1 4 10 -1 8 -5 18 -8 22 -4 3
-5 -1 -4 -10z"/>
<path d="M2980 1036 c0 -2 8 -10 18 -17 15 -13 16 -12 3 4 -13 16 -21 21 -21
13z"/>
<path d="M3056 1024 c-5 -14 -4 -15 9 -4 17 14 19 20 6 20 -5 0 -12 -7 -15
-16z"/>
<path d="M3010 1000 c-9 -6 -10 -10 -3 -10 6 0 15 5 18 10 8 12 4 12 -15 0z"/>
<path d="M2951 955 c4 -3 19 -8 35 -11 16 -3 26 -2 23 1 -4 3 -19 8 -35 11
-16 3 -26 2 -23 -1z"/>
<path d="M2952 921 c-11 -7 -11 -9 0 -14 9 -3 15 1 15 9 0 8 -1 14 -1 14 -1 0
-7 -4 -14 -9z"/>
<path d="M2915 870 c-3 -5 -1 -10 4 -10 6 0 11 5 11 10 0 6 -2 10 -4 10 -3 0
-8 -4 -11 -10z"/>
<path d="M2875 710 c-3 -5 -1 -10 4 -10 6 0 11 5 11 10 0 6 -2 10 -4 10 -3 0
-8 -4 -11 -10z"/>
<path d="M1075 701 c-3 -5 -2 -12 3 -15 5 -3 9 1 9 9 0 17 -3 19 -12 6z"/>
<path d="M2840 650 c-9 -6 -10 -10 -3 -10 6 0 15 5 18 10 8 12 4 12 -15 0z"/>
<path d="M2850 609 c0 -5 5 -7 10 -4 6 3 10 8 10 11 0 2 -4 4 -10 4 -5 0 -10
-5 -10 -11z"/>
<path d="M2770 550 c0 -4 7 -7 15 -6 23 3 26 12 5 13 -11 1 -20 -2 -20 -7z"/>
<path d="M2699 528 c-5 -9 -5 -48 -1 -43 6 6 11 45 5 45 -2 0 -4 -1 -4 -2z"/>
<path d="M2765 510 c-3 -6 1 -7 9 -4 18 7 21 14 7 14 -6 0 -13 -4 -16 -10z"/>
<path d="M2636 492 c-3 -5 1 -9 9 -9 8 0 12 4 9 9 -3 4 -7 8 -9 8 -2 0 -6 -4
-9 -8z"/>
<path d="M2365 439 c-4 -6 -5 -12 -2 -15 2 -3 7 2 10 11 7 17 1 20 -8 4z"/>
<path d="M2410 409 c0 -5 5 -7 10 -4 6 3 10 8 10 11 0 2 -4 4 -10 4 -5 0 -10
-5 -10 -11z"/>
<path d="M2445 410 c-3 -6 1 -7 9 -4 18 7 21 14 7 14 -6 0 -13 -4 -16 -10z"/>
<path d="M2256 357 c3 -10 9 -15 12 -12 3 3 0 11 -7 18 -10 9 -11 8 -5 -6z"/>
<path d="M2091 303 c-16 -14 -18 -21 -10 -33 9 -13 10 -12 5 2 -6 19 25 43 39
30 5 -4 5 -1 1 6 -9 15 -10 15 -35 -5z"/>
<path d="M2113 275 c0 -8 4 -12 9 -9 5 3 6 10 3 15 -9 13 -12 11 -12 -6z"/>
<path d="M2030 225 c0 -8 4 -15 8 -15 5 0 9 7 9 15 0 8 -4 15 -9 15 -4 0 -8
-7 -8 -15z"/>
<path d="M1359 168 c-5 -18 -6 -38 -1 -34 7 8 12 36 6 36 -2 0 -4 -1 -5 -2z"/>
<path d="M2013 155 c0 -8 4 -12 9 -9 5 3 6 10 3 15 -9 13 -12 11 -12 -6z"/>
<path d="M1980 150 c-9 -6 -10 -10 -3 -10 6 0 15 5 18 10 8 12 4 12 -15 0z"/>
<path d="M1932 110 c0 -14 2 -19 5 -12 2 6 2 18 0 25 -3 6 -5 1 -5 -13z"/>
<path d="M1976 117 c3 -10 9 -15 12 -12 3 3 0 11 -7 18 -10 9 -11 8 -5 -6z"/>
<path d="M1571 103 c-1 -17 16 -25 25 -12 4 7 3 9 -4 5 -5 -3 -13 0 -15 6 -4
9 -6 10 -6 1z"/>
<path d="M1615 70 c3 -5 8 -10 11 -10 2 0 4 5 4 10 0 6 -5 10 -11 10 -5 0 -7
-4 -4 -10z"/>
<path d="M1900 76 c0 -2 8 -10 18 -17 15 -13 16 -12 3 4 -13 16 -21 21 -21 13z"/>
</g>
</svg>
